# xmcd
#
# Track frame offsets:
#	150
#	14458
#	32639
#	49424
#	65807
#	83935
#	99238
#	115229
#	127936
#	144820
#	161576
#	179372
#	195826
#	214953
#	227399
#	244597
#	256202
#	267184
#	285632
#	297328
#	310416
#	323227
#
# Disc length: 4490 seconds
# Revision: 2
# Processed by: cddbd v1.5.2PL0 Copyright (c) Steve Scherf et al.
# Submitted via: dBpowerAMP V12.0
#
DISCID=37118816
DTITLE=Various Artist - CDX, Vol. 250: OCtober 2000
DYEAR=2000
DGENRE=Country
TTITLE0=Terri Clark - A Little Gasoline
TTITLE1=Jo Dee Messina - Burn
TTITLE2=Keith Urban - But For The Grace Of God
TTITLE3=Don Henley - For My Wedding
TTITLE4=Sonya Isaacs - How Can I Forget
TTITLE5=Hank Williams III - I Don't Know
TTITLE6=Shania Twain - I'm Holdin' On To Love (To Save My Life)
TTITLE7=Georgia Middleman - Kick Down The Door
TTITLE8=Ronnie Milsap - Livin' On Love
TTITLE9=Van Morrison and Linda Gayle Lewis - No Way Pedro
TTITLE10=Billy Gilman - Oklahoma
TTITLE11=Diamond Rio - One More Day With You
TTITLE12=George Jones - Our Bed Of Roses
TTITLE13=Roger Brown - Rodeo Boogie
TTITLE14=Tim Rushlow - She Misses Him
TTITLE15=Ricky Van Shelton - Somebody's Gonna Lose
TTITLE16=Merle Haggard - (Think About A) Lullaby
TTITLE17=Billy Burnette - What A Woman Feels
TTITLE18=Alan Jackson - Www.Memory
TTITLE19=Chris Chitsey - With A Boy Like That
TTITLE20=Willie P. Richardson - Lot For Sale
TTITLE21=Keith Urban, Chely Wright, Dolly Parton, Lee Kernaghan and Vince Gill - Wave To The World
EXTD=
EXTT0=
EXTT1=
EXTT2=
EXTT3=
EXTT4=
EXTT5=
EXTT6=
EXTT7=
EXTT8=
EXTT9=
EXTT10=
EXTT11=
EXTT12=
EXTT13=
EXTT14=
EXTT15=
EXTT16=
EXTT17=
EXTT18=
EXTT19=
EXTT20=
EXTT21=
PLAYORDER=
